<?xml version="1.0" encoding="utf-8"?>
<!-- Generator: Adobe Illustrator 27.5.0, SVG Export Plug-In . SVG Version: 6.00 Build 0)  -->
<svg version="1.1" xmlns="http://www.w3.org/2000/svg" xmlns:xlink="http://www.w3.org/1999/xlink" x="0px" y="0px" height="600px" width="580px"
	 viewBox="0 0 500 500" style="enable-background:new 0 0 500 500;" xml:space="preserve">
<g id="BACKGROUND">
	<rect style="fill:#FFFFFF;" width="500" height="500"/>
</g>
<g id="OBJECTS">
	<g>
		<linearGradient id="SVGID_1_" gradientUnits="userSpaceOnUse" x1="21.0931" y1="194.0433" x2="447.8037" y2="194.0433">
			<stop  offset="0" style="stop-color:#FF789E"/>
			<stop  offset="1" style="stop-color:#F5FF5F"/>
		</linearGradient>
		<path style="opacity:0.2;fill:url(#SVGID_1_);" d="M238.968,338.416c-38.12,15.804-79.85,22.828-121.043,20.376
			c-21.459-1.278-43.285-5.284-61.771-16.257c-18.486-10.973-33.219-29.876-34.892-51.308
			c-1.974-25.292,13.724-48.295,29.699-68.002c15.975-19.707,33.709-40.139,37.04-65.288c2.657-20.063-4.375-40.526-1.348-60.537
			c4.017-26.554,25.66-47.94,50.471-58.219c24.811-10.279,52.458-11.141,79.288-9.959c21.438,0.945,44.396,3.751,60.479,17.957
			c9.945,8.785,16.278,21.176,26.598,29.518c27.165,21.958,68.528,7.783,101.333,19.779c26.759,9.785,45.182,38.672,42.769,67.062
			c-2.583,30.388-25.867,56.159-27.951,86.585c-0.86,12.553,1.988,25.178,0.745,37.7c-2.322,23.397-19.679,44.068-41.63,52.491
			c-21.951,8.423-47.522,5.208-67.957-6.42c-20.435-11.628-35.845-31.063-44.814-52.796"/>
		
			<linearGradient id="SVGID_00000020395841359895851320000016487382020626694332_" gradientUnits="userSpaceOnUse" x1="391.7785" y1="430.2307" x2="99.9085" y2="365.8976">
			<stop  offset="0" style="stop-color:#FFDA6D"/>
			<stop  offset="1" style="stop-color:#D995E2"/>
		</linearGradient>
		
			<ellipse style="opacity:0.2;fill:url(#SVGID_00000020395841359895851320000016487382020626694332_);" cx="250" cy="398.98" rx="223.404" ry="27.47"/>
		
			<linearGradient id="SVGID_00000143594282109417923630000005193792994388920490_" gradientUnits="userSpaceOnUse" x1="336.9495" y1="364.9254" x2="375.7322" y2="324.0177" gradientTransform="matrix(0.9058 -0.4237 0.4237 0.9058 -108.2633 186.019)">
			<stop  offset="0" style="stop-color:#F26BAC"/>
			<stop  offset="1" style="stop-color:#B2C1FF"/>
		</linearGradient>
		<path style="fill:url(#SVGID_00000143594282109417923630000005193792994388920490_);" d="M347.894,380.725
			c0,0-18.605-48.586,24.216-71.432C395.147,359.909,347.894,380.725,347.894,380.725z"/>
		
			<linearGradient id="SVGID_00000057830031491376153450000017286948074719371709_" gradientUnits="userSpaceOnUse" x1="154.3246" y1="373.8734" x2="81.8248" y2="318.3736">
			<stop  offset="0" style="stop-color:#F26BAC"/>
			<stop  offset="1" style="stop-color:#B2C1FF"/>
		</linearGradient>
		<path style="fill:url(#SVGID_00000057830031491376153450000017286948074719371709_);" d="M171.468,384.326
			c0,0-51.646,6.278-63.437-40.802C162.722,333.438,171.468,384.326,171.468,384.326z"/>
		
			<linearGradient id="SVGID_00000065045783710468813390000005035170683246733498_" gradientUnits="userSpaceOnUse" x1="165.8627" y1="378.5617" x2="128.3627" y2="332.5617">
			<stop  offset="0" style="stop-color:#F26BAC"/>
			<stop  offset="1" style="stop-color:#B2C1FF"/>
		</linearGradient>
		<path style="fill:url(#SVGID_00000065045783710468813390000005035170683246733498_);" d="M172.149,384.091
			c0,0-51.577-6.821-51.235-55.353C176.391,332.632,172.149,384.091,172.149,384.091z"/>
		
			<linearGradient id="SVGID_00000016764247722978272130000006967382591750934935_" gradientUnits="userSpaceOnUse" x1="367.4131" y1="370.0405" x2="419.525" y2="302.6422">
			<stop  offset="0" style="stop-color:#F26BAC"/>
			<stop  offset="1" style="stop-color:#B2C1FF"/>
		</linearGradient>
		<path style="fill:url(#SVGID_00000016764247722978272130000006967382591750934935_);" d="M352.625,382.978
			c0,0,1.842-51.994,50.184-56.307C404.254,382.264,352.625,382.978,352.625,382.978z"/>
		<g>
			<g>
				<path style="fill:#CCC8FF;" d="M352.62,385.326H147.38c-2.888,0-5.23-2.341-5.23-5.23V111.542c0-2.888,2.342-5.23,5.23-5.23
					H352.62c2.888,0,5.23,2.341,5.23,5.23v268.554C357.85,382.985,355.509,385.326,352.62,385.326z"/>
				<path style="fill:#FFFFFF;" d="M340.17,368.792H159.83c-2.004,0-3.628-1.625-3.628-3.629v-243.71
					c0-2.004,1.624-3.629,3.628-3.629H340.17c2.004,0,3.629,1.625,3.629,3.629v243.71
					C343.799,367.168,342.174,368.792,340.17,368.792z"/>
				<g>
					<defs>
						<path id="XMLID_1_" d="M285.632,125.561h-71.264v-22.377c0-4.694,3.805-8.499,8.499-8.499h54.266
							c4.694,0,8.499,3.805,8.499,8.499V125.561z"/>
					</defs>
					<use xlink:href="#XMLID_1_"  style="overflow:visible;fill:#9F81D3;"/>
					<clipPath id="XMLID_00000127024751007197621950000013055081371326129343_">
						<use xlink:href="#XMLID_1_"  style="overflow:visible;"/>
					</clipPath>
					
						<rect x="189.669" y="121.15" style="opacity:0.3;clip-path:url(#XMLID_00000127024751007197621950000013055081371326129343_);fill:#46495F;" width="112.137" height="22.054"/>
					
						<rect x="190.614" y="114.365" style="opacity:0.3;clip-path:url(#XMLID_00000127024751007197621950000013055081371326129343_);fill:#46495F;" width="112.137" height="1.43"/>
					
						<rect x="190.614" y="109.408" style="opacity:0.3;clip-path:url(#XMLID_00000127024751007197621950000013055081371326129343_);fill:#46495F;" width="112.137" height="1.43"/>
				</g>
				<path style="fill:#9F81D3;" d="M267.506,98.619l-2.099-9.315c-0.73-3.241-3.609-5.543-6.931-5.543h-16.951
					c-3.322,0-6.201,2.302-6.931,5.543l-2.099,9.315c-1.001,4.443,2.377,8.667,6.931,8.667h21.15
					C265.129,107.285,268.507,103.061,267.506,98.619z M255.374,93.735h-10.748c-1.759,0-3.185-1.426-3.185-3.186
					c0-1.759,1.426-3.186,3.185-3.186h10.748c1.76,0,3.186,1.426,3.186,3.186C258.56,92.309,257.134,93.735,255.374,93.735z"/>
			</g>
			<g>
				<path style="fill:#9F81D3;" d="M188.701,172.792c-10.011,0-18.156-8.145-18.156-18.156c0-10.011,8.145-18.156,18.156-18.156
					c10.011,0,18.156,8.145,18.156,18.156C206.857,164.648,198.712,172.792,188.701,172.792z M188.701,138.48
					c-8.909,0-16.156,7.247-16.156,16.156s7.248,16.156,16.156,16.156c8.909,0,16.156-7.248,16.156-16.156
					S197.61,138.48,188.701,138.48z"/>
				<rect x="214.368" y="144.195" style="fill:#9F81D3;" width="109.843" height="4.348"/>
				<rect x="214.368" y="152.738" style="fill:#9F81D3;" width="109.843" height="4.348"/>
				<rect x="214.368" y="161.281" style="fill:#9F81D3;" width="91.809" height="4.348"/>
				<g>
					<path style="fill:#5FCCAE;" d="M189.22,163.306c-0.736,0-1.428-0.353-1.861-0.951l-9.292-12.865
						c-0.742-1.028-0.511-2.462,0.517-3.204c1.027-0.742,2.462-0.511,3.204,0.517l7.368,10.202l12.504-18.513
						c0.709-1.05,2.136-1.328,3.186-0.617c1.05,0.709,1.327,2.136,0.617,3.186l-14.343,21.235c-0.42,0.621-1.116,0.999-1.865,1.01
						C189.244,163.306,189.232,163.306,189.22,163.306z"/>
					<path style="fill:#FFFFFF;" d="M203.565,137.48c0.442,0,0.889,0.128,1.282,0.394c1.05,0.709,1.327,2.136,0.617,3.186
						l-14.343,21.235c-0.419,0.621-1.116,0.998-1.865,1.01c-0.012,0-0.024,0-0.036,0c-0.736,0-1.428-0.353-1.861-0.951
						l-9.292-12.865c-0.742-1.028-0.51-2.462,0.517-3.204c0.406-0.293,0.876-0.435,1.342-0.435c0.712,0,1.414,0.33,1.863,0.951
						l7.368,10.202l12.504-18.513C202.104,137.835,202.828,137.48,203.565,137.48 M203.565,135.48L203.565,135.48
						c-1.43,0-2.761,0.707-3.562,1.891l-10.902,16.141l-5.692-7.881c-0.806-1.115-2.108-1.78-3.484-1.78
						c-0.907,0-1.776,0.281-2.513,0.813c-1.92,1.387-2.354,4.077-0.967,5.997l9.292,12.865c0.806,1.115,2.107,1.78,3.482,1.78h0.031
						l0.068-0.001c1.37-0.021,2.676-0.728,3.46-1.89l14.343-21.235c0.642-0.95,0.876-2.094,0.658-3.221
						c-0.218-1.126-0.862-2.1-1.813-2.742C205.255,135.735,204.424,135.48,203.565,135.48L203.565,135.48z"/>
				</g>
			</g>
			<g>
				<path style="fill:#9F81D3;" d="M188.701,218.292c-10.011,0-18.156-8.145-18.156-18.156c0-10.011,8.145-18.156,18.156-18.156
					c10.011,0,18.156,8.145,18.156,18.156C206.857,210.148,198.712,218.292,188.701,218.292z M188.701,183.98
					c-8.909,0-16.156,7.247-16.156,16.156s7.248,16.156,16.156,16.156c8.909,0,16.156-7.248,16.156-16.156
					S197.61,183.98,188.701,183.98z"/>
				<rect x="214.368" y="189.695" style="fill:#9F81D3;" width="109.843" height="4.348"/>
				<rect x="214.368" y="198.238" style="fill:#9F81D3;" width="109.843" height="4.348"/>
				<rect x="214.368" y="206.781" style="fill:#9F81D3;" width="11.832" height="4.348"/>
				<g>
					<path style="fill:#5FCCAE;" d="M189.22,208.806c-0.736,0-1.428-0.353-1.861-0.951l-9.292-12.865
						c-0.742-1.028-0.511-2.462,0.517-3.204c1.027-0.742,2.462-0.511,3.204,0.517l7.368,10.202l12.504-18.513
						c0.709-1.05,2.136-1.328,3.186-0.617c1.05,0.709,1.327,2.136,0.617,3.186l-14.343,21.235c-0.42,0.621-1.116,0.999-1.865,1.01
						C189.244,208.806,189.232,208.806,189.22,208.806z"/>
					<path style="fill:#FFFFFF;" d="M203.565,182.98c0.442,0,0.889,0.128,1.282,0.394c1.05,0.709,1.327,2.136,0.617,3.186
						l-14.343,21.235c-0.419,0.621-1.116,0.998-1.865,1.01c-0.012,0-0.024,0-0.036,0c-0.736,0-1.428-0.353-1.861-0.951
						l-9.292-12.865c-0.742-1.028-0.51-2.462,0.517-3.204c0.406-0.293,0.876-0.435,1.342-0.435c0.712,0,1.414,0.33,1.863,0.951
						l7.368,10.202l12.504-18.513C202.104,183.335,202.828,182.98,203.565,182.98 M203.565,180.98L203.565,180.98
						c-1.43,0-2.761,0.707-3.562,1.891l-10.902,16.141l-5.692-7.881c-0.806-1.115-2.108-1.78-3.484-1.78
						c-0.907,0-1.776,0.281-2.513,0.813c-1.92,1.387-2.354,4.077-0.967,5.997l9.292,12.865c0.806,1.115,2.107,1.78,3.482,1.78h0.031
						l0.068-0.001c1.37-0.021,2.676-0.728,3.46-1.89l14.343-21.235c0.642-0.95,0.876-2.094,0.658-3.221
						c-0.218-1.126-0.862-2.1-1.813-2.742C205.255,181.235,204.424,180.98,203.565,180.98L203.565,180.98z"/>
				</g>
			</g>
			<g>
				<path style="fill:#9F81D3;" d="M188.701,263.793c-10.011,0-18.156-8.145-18.156-18.156c0-10.011,8.145-18.156,18.156-18.156
					c10.011,0,18.156,8.145,18.156,18.156C206.857,255.648,198.712,263.793,188.701,263.793z M188.701,229.48
					c-8.909,0-16.156,7.247-16.156,16.156s7.248,16.156,16.156,16.156c8.909,0,16.156-7.248,16.156-16.156
					S197.61,229.48,188.701,229.48z"/>
				<rect x="214.368" y="235.195" style="fill:#9F81D3;" width="109.843" height="4.348"/>
				<rect x="214.368" y="243.738" style="fill:#9F81D3;" width="109.843" height="4.348"/>
				<rect x="214.368" y="252.281" style="fill:#9F81D3;" width="51.413" height="4.348"/>
				<g>
					<path style="fill:#5FCCAE;" d="M189.22,254.306c-0.736,0-1.428-0.353-1.861-0.951l-9.292-12.865
						c-0.742-1.028-0.511-2.462,0.517-3.204c1.027-0.742,2.462-0.511,3.204,0.517l7.368,10.202l12.504-18.513
						c0.709-1.05,2.136-1.328,3.186-0.617c1.05,0.709,1.327,2.136,0.617,3.186l-14.343,21.235c-0.42,0.621-1.116,0.999-1.865,1.01
						C189.244,254.306,189.232,254.306,189.22,254.306z"/>
					<path style="fill:#FFFFFF;" d="M203.565,228.48c0.442,0,0.889,0.128,1.282,0.394c1.05,0.709,1.327,2.136,0.617,3.186
						l-14.343,21.235c-0.419,0.621-1.116,0.998-1.865,1.01c-0.012,0-0.024,0-0.036,0c-0.736,0-1.428-0.353-1.861-0.951
						l-9.292-12.865c-0.742-1.028-0.51-2.462,0.517-3.204c0.406-0.293,0.876-0.435,1.342-0.435c0.712,0,1.414,0.33,1.863,0.951
						l7.368,10.202l12.504-18.513C202.104,228.835,202.828,228.48,203.565,228.48 M203.565,226.48L203.565,226.48
						c-1.43,0-2.761,0.707-3.562,1.891l-10.902,16.141l-5.692-7.881c-0.806-1.115-2.108-1.78-3.484-1.78
						c-0.907,0-1.776,0.281-2.513,0.813c-1.92,1.387-2.354,4.077-0.967,5.997l9.292,12.865c0.806,1.115,2.107,1.78,3.482,1.78h0.031
						l0.068-0.001c1.37-0.021,2.676-0.728,3.46-1.89l14.343-21.235c0.642-0.95,0.876-2.094,0.658-3.221
						c-0.218-1.126-0.862-2.1-1.813-2.742C205.255,226.735,204.424,226.48,203.565,226.48L203.565,226.48z"/>
				</g>
			</g>
			<g>
				<path style="fill:#9F81D3;" d="M188.701,309.293c-10.011,0-18.156-8.145-18.156-18.156c0-10.011,8.145-18.156,18.156-18.156
					c10.011,0,18.156,8.145,18.156,18.156C206.857,301.147,198.712,309.293,188.701,309.293z M188.701,274.98
					c-8.909,0-16.156,7.247-16.156,16.156s7.248,16.156,16.156,16.156c8.909,0,16.156-7.248,16.156-16.156
					S197.61,274.98,188.701,274.98z"/>
				<rect x="214.368" y="280.695" style="fill:#9F81D3;" width="109.843" height="4.348"/>
				<rect x="214.368" y="289.238" style="fill:#9F81D3;" width="109.843" height="4.348"/>
				<rect x="214.368" y="297.78" style="fill:#9F81D3;" width="102.826" height="4.348"/>
			</g>
			<g>
				<path style="fill:#9F81D3;" d="M188.701,354.793c-10.011,0-18.156-8.145-18.156-18.156c0-10.011,8.145-18.156,18.156-18.156
					c10.011,0,18.156,8.145,18.156,18.156C206.857,346.647,198.712,354.793,188.701,354.793z M188.701,320.48
					c-8.909,0-16.156,7.247-16.156,16.156s7.248,16.156,16.156,16.156c8.909,0,16.156-7.248,16.156-16.156
					S197.61,320.48,188.701,320.48z"/>
				<rect x="214.368" y="326.195" style="fill:#9F81D3;" width="109.843" height="4.348"/>
				<rect x="214.368" y="334.738" style="fill:#9F81D3;" width="109.843" height="4.348"/>
				<rect x="214.368" y="343.28" style="fill:#9F81D3;" width="72.485" height="4.348"/>
			</g>
		</g>
		<g>
			<path style="fill:#5D386E;" d="M263,312.973c0,0,0.467,9.877,0,11.016c-0.467,1.14-4.139,0.76-4.139,0.76
				s-5.617-18.08-3.251-27.177c1.012-3.895,3.657-5.534,3.657-5.534l3.068,2.274l4.377-4.892l-0.462,4.989
				c0,0,8.946-6.129,17.43-3.47c8.484,2.659,13.422-4.363,16.715,2.912c3.292,7.276,1.375,14.942-2.605,16.714
				c1.339,2.153,0.58,12.57-3.346,13.618c-3.672-8.829-3.293-15.893-3.293-15.893L263,312.973z"/>
			<path style="fill:#5D4681;" d="M273.806,328.638c0,0-14.886,2.669-27.714,11.036c-12.828,8.366-25.469,21.553,11.147,39.483
				C278.476,369.271,273.806,328.638,273.806,328.638z"/>
			<path style="fill:#5D4681;" d="M282.816,328.638c0,0,13.534,4.137,26.362,12.503c12.828,8.366,22.243,21.544-15.094,40.858
				C272.847,372.113,282.816,328.638,282.816,328.638z"/>
			<g>
				<path id="XMLID_6_" style="fill:#5D4681;" d="M266.231,331.146c0,0-9.607,1.558-15.562,7.87
					c-5.955,6.312,4.026,55.208,4.026,55.208l44.771-0.678c0,0,8.064-44.016,4.796-53.401c-3.267-9.385-19.353-8.163-19.353-8.163
					L266.231,331.146z"/>
				<path style="opacity:0.1;fill:#606060;" d="M253.074,364.403l-0.494-17.122c0,0,7.289,9.872,22.902,11.266
					c15.613,1.394,24.37-13.873,24.37-13.873v19.729H253.074z"/>
				<g>
					<path style="fill:#F8CAC7;" d="M273.138,301.71c-13.737,2.512-18.629,28.799-5.835,36.44c6.077,3.629,18.11,4.281,21.739,0.132
						c2.978-3.405,7.171-10.436,6.161-16.888c-0.759-4.851-0.87-12.328-2.077-15.102
						C289.856,298.774,285.264,299.493,273.138,301.71z"/>
				</g>
			</g>
			<polygon style="fill:#F86A82;" points="250.669,382.844 307.043,382.844 307.043,392.896 250.669,393.78 			"/>
			<g>
				<defs>
					<path id="XMLID_7_" d="M271.724,388.038c0,0,47.945-14.91,58.988-10.233c11.044,4.677,7.865,16.364,4.372,18.325
						c-3.493,1.962-58.561,8.509-58.561,8.509L271.724,388.038z"/>
				</defs>
				<use xlink:href="#XMLID_7_"  style="overflow:visible;fill:#F86A82;"/>
				<clipPath id="XMLID_00000018955978242912301000000004806687432217582770_">
					<use xlink:href="#XMLID_7_"  style="overflow:visible;"/>
				</clipPath>
				<path style="opacity:0.1;clip-path:url(#XMLID_00000018955978242912301000000004806687432217582770_);fill:#606060;" d="
					M262.483,401.235c23.905-9.615,47.867-19.088,71.883-28.42c-1.526-0.784-3.33-0.731-5.043-0.638
					c-22.216,1.206-44.23,6.03-64.914,14.226"/>
			</g>
			<polygon style="fill:#9F81D3;" points="246.092,358.42 251.583,390.768 301.423,390.768 307.167,358.42 			"/>
			<polygon style="fill:#B39BDC;" points="246.092,358.42 247.169,356.409 305.041,356.409 307.167,358.42 			"/>
			<path style="opacity:0.2;fill:#606060;" d="M282.289,373.774c0,2.973-2.41,5.382-5.382,5.382c-2.972,0-5.382-2.41-5.382-5.382
				c0-2.973,2.41-5.382,5.382-5.382C279.88,368.392,282.289,370.802,282.289,373.774z"/>
			<path style="fill:#46495F;" d="M282.289,398.842l12.203,1.82c0,0,8.664,15.618,7.416,17.674
				c-1.248,2.056-6.182,3.495-8.444,2.056c-2.262-1.439-5.962-10.484-5.962-10.484l-10.595-2.263"/>
			<path style="fill:#FFFFFF;" d="M281.374,409.215c-0.063,0.116-0.127,0.25-0.084,0.375c0.034,0.1,0.128,0.166,0.219,0.22
				c0.473,0.284,1.053,0.456,1.579,0.289c0.563-0.179,0.941-0.7,1.238-1.211c0.562-0.965,0.984-2.011,1.25-3.096
				c0.046-0.186,0.081-0.401-0.034-0.554c-0.05-0.066-0.122-0.111-0.196-0.149C283.345,404.071,282.043,407.975,281.374,409.215z"/>
			<path style="fill:#FFFFFF;" d="M285.717,410.707c-0.063,0.116-0.127,0.25-0.084,0.375c0.034,0.1,0.128,0.166,0.219,0.22
				c0.473,0.284,1.054,0.456,1.579,0.289c0.563-0.179,0.941-0.7,1.238-1.211c0.562-0.965,0.984-2.012,1.25-3.096
				c0.046-0.186,0.081-0.401-0.034-0.554c-0.05-0.066-0.122-0.111-0.196-0.149C287.688,405.563,286.386,409.467,285.717,410.707z"/>
			<g>
				<path style="fill:#46495F;" d="M265.471,392.797l-12.337-0.11c0,0-10.999,14.071-10.088,16.297
					c0.911,2.226,5.56,4.419,8.019,3.351c2.459-1.068,7.528-9.423,7.528-9.423l10.818-0.579"/>
				<path style="fill:#FFFFFF;" d="M264.754,403.185c0.044,0.125,0.086,0.267,0.025,0.384c-0.049,0.093-0.152,0.144-0.25,0.183
					c-0.512,0.207-1.112,0.286-1.605,0.038c-0.528-0.265-0.82-0.839-1.034-1.39c-0.404-1.041-0.658-2.141-0.75-3.253
					c-0.016-0.191-0.018-0.408,0.12-0.542c0.059-0.058,0.138-0.091,0.217-0.117C263.61,397.797,264.287,401.856,264.754,403.185z"/>
				<path style="fill:#FFFFFF;" d="M260.231,403.98c0.044,0.125,0.086,0.267,0.025,0.383c-0.049,0.094-0.152,0.144-0.25,0.183
					c-0.512,0.207-1.112,0.286-1.605,0.038c-0.528-0.265-0.82-0.839-1.034-1.39c-0.404-1.041-0.657-2.141-0.75-3.253
					c-0.016-0.191-0.017-0.408,0.12-0.542c0.059-0.057,0.138-0.091,0.217-0.117C259.087,398.591,259.764,402.651,260.231,403.98z"/>
			</g>
			<g>
				<defs>
					<path id="XMLID_8_" d="M285.391,396.589c0,0-44.405-23.436-56.118-20.86c-11.713,2.576-10.38,14.28-7.654,17.215
						c5.748,6.188,56.013,19.086,56.013,19.086L285.391,396.589z"/>
				</defs>
				<use xlink:href="#XMLID_8_"  style="overflow:visible;fill:#F86A82;"/>
				<clipPath id="XMLID_00000119810511135107859480000007903198528628888499_">
					<use xlink:href="#XMLID_8_"  style="overflow:visible;"/>
				</clipPath>
				<path style="opacity:0.1;clip-path:url(#XMLID_00000119810511135107859480000007903198528628888499_);fill:#606060;" d="
					M207.611,381.51c8.853,7.176,19.615,11.762,30.722,14.314c11.107,2.552,22.583,3.136,33.977,2.903
					c7.304-0.15,14.62-0.632,21.906-0.111c5.46,0.391,11.722,1.953,13.991,6.935c1.968,4.321-0.037,9.525-3.195,13.07
					c-2.644,2.969-6.084,5.223-9.862,6.461c-4.129,1.353-8.552,1.49-12.896,1.389c-24.671-0.575-49.117-8.652-69.274-22.888"/>
			</g>
			<path style="fill:#5D386E;" d="M259.414,305.775c-4.406,6.391-6.203,16.705,1.396,23.548c-1.203-5.663-0.798-8.723,0.004-12.523
				c0.861,0.801,1.776,1.545,2.736,2.224c0.856-2.03,1.03-4.34,0.487-6.475c2.797-2.501,6.829-3.548,10.49-2.723
				c2.044,0.461,3.922,1.453,5.868,2.229c2.486,0.992,5.153,1.644,7.825,1.487c2.672-0.158,5.355-1.188,7.172-3.152
				c1.285-1.389,2.103-3.419,1.445-5.192c-0.569-1.535-2.071-2.501-3.53-3.243c-9.345-4.747-21.036-4.541-30.207,0.534"/>
			<path style="fill:#F8CAC7;" d="M262.629,315.997c-0.232-1.223-1.066-2.236-2.055-2.495c-0.989-0.259-2.081,0.249-2.691,1.251
				c-0.733,1.205-0.725,2.863-0.536,4.355c0.088,0.699,0.211,1.399,0.455,2.039c0.391,1.026,1.071,1.841,1.806,2.514
				c0.441,0.403,0.913,0.767,1.434,0.975c1.717,0.685,3.781-0.72,4.242-2.889"/>
			<path style="fill:#F8CAC7;" d="M291.472,318.032c0.489-0.741,1.028-1.466,1.734-2.005c0.706-0.538,1.605-0.874,2.484-0.744
				c0.927,0.137,1.705,0.761,2.364,1.428c0.329,0.333,0.645,0.688,0.856,1.106c0.402,0.795,0.386,1.739,0.223,2.614
				c-0.376,2.014-1.702,4.02-3.702,4.468c-0.708,0.159-1.672-0.07-1.756-0.792"/>
			<path style="fill:#F8CAC7;" d="M296.552,320.101c0.032,0.452-0.063,0.912-0.27,1.315"/>
		</g>
		<g>
			<path style="fill:#AD57C0;" d="M365.626,200.607c-3.777,4.861-4.763,12.171-3.647,18.794c0.721,4.279,2.329,8.525,5.142,11.408
				c4.601,4.715,11.575,5.056,15.969,10.041c3.982,4.518,4.77,11.562,7.372,17.301c3.814,8.41,12.028,13.82,19.939,13.132
				c4.952-0.43,9.691-3.017,14.663-2.508c4.008,0.41,7.833,2.817,11.844,2.783c6.078-0.051,11.39-6.656,11.148-13.862
				c-0.067-2.01-0.549-4.096-1.707-5.608c-2.717-3.545-8.337-3.121-10.012-7.459c-1.266-3.279,0.72-6.798,1.328-10.264
				c0.791-4.515-1.085-9.609-4.457-12.101c-1.677-1.24-3.642-1.868-5.238-3.255c-3.058-2.659-4.078-7.391-5.535-11.521
				c-3.347-9.493-10.379-17.449-18.789-19.835c-7.299-2.071-14.244,0.583-19.712,6.061c-4.083,4.091-3.102,2.502-8.457,2.131
				C371.818,195.592,368.053,197.484,365.626,200.607z"/>
			<g>
				<path style="fill:#F8CAC7;" d="M434.831,309.174c0,0-0.895,5.473-0.799,9.507c0.096,4.034,2.768,5.89,3.525,5.954
					s1.261-0.764,1.261-0.764l-1.943-2.774c0,0,2.713,2.673,3.57,2.828c0.857,0.155,1.891-0.494,1.891-0.494l-2.471-2.953
					c0,0,2.843,2.415,3.518,2.145c0.676-0.27,1.198-1.314,1.198-1.314l-2.681-3.054c0,0,3.313,0.714,3.556,0.408
					s0.136-1.62,0.136-1.62l-2.898-1.767c0,0,1.021-4.375,0.222-7.815C442.118,304.021,434.831,309.174,434.831,309.174z"/>
				<path style="fill:#46495F;" d="M467.36,330.539c0,0,14.08-2.905,14.751-2.905s7.375,19.183,6.482,20.096
					c-0.894,0.913-7.599-11.156-8.493-11.156s-10.057,2.682-10.057,2.682L467.36,330.539z"/>
				<path style="fill:#46495F;" d="M394.642,378.6c0,0,2.845,14.093,2.842,14.763s-19.215,7.292-20.124,6.395
					c-0.909-0.898,11.189-7.551,11.193-8.445s-2.638-10.069-2.638-10.069L394.642,378.6z"/>
				<path style="fill:#F8CAC7;" d="M343.406,246.234c0,0-2.184-13.133-2.441-14.418c-0.257-1.285-2.955-8.372-3.34-8.489
					c-0.385-0.118-2.127,0-2.127,0l1.614,7.281c0,0-5.909,0.255-6.937,2.508c-1.028,2.253,1.098,12.916,6.437,14.805"/>
				<g>
					<path style="fill:#FFC77A;" d="M424.272,299.81c0,0,5.402,26.384,9.821,35.518c13.553-3.83,36.07-6.57,36.07-6.57l3.241,10.486
						c0,0-38.217,16.413-47.055,13.172c-8.839-3.241-18.582-37.103-18.582-37.103l-10.863-0.954c0,0-8.283,33.805-0.102,65.962
						c-5.892,2.062-12.478,3.241-12.478,3.241s-14.521-48.465-3.83-81.038C397.98,293.786,424.272,299.81,424.272,299.81z"/>
					<path style="fill:#F86A82;" d="M405.939,246.107c0,0,8.274-2.771,17.302,5.515c8.326,7.643,22.532,25.034,20.764,58.84
						l-9.174-1.289c0,0-3.636-36.469-17.696-41.144c-1.477,11.508,7.138,31.78,7.138,31.78s-22.543,7.559-43.777,2.714
						c0.339-1.975,0.124-34.494,0.124-34.494s-38.055,15.51-48.638-23.749c5.075-6.008,10.856-4.558,10.856-4.558
						s8.007,18.854,18.71,19.276c6.888,0.272,21.702-12.893,29.61-11.19C397.213,249.114,405.939,246.107,405.939,246.107z"/>
					<g>
						<defs>
							<path id="XMLID_2_" d="M402.747,223.106c0,0-2.714,18.962,4.41,24.699c-5.642,9.553-15.23,20-18.792,4.281
								c5.979-7.277,0.952-11.881,0.952-11.881L402.747,223.106z"/>
						</defs>
						<use xlink:href="#XMLID_2_"  style="overflow:visible;fill:#F8CAC7;"/>
						<clipPath id="XMLID_00000113343622187818953440000013002774677423295112_">
							<use xlink:href="#XMLID_2_"  style="overflow:visible;"/>
						</clipPath>
						<path style="opacity:0.2;clip-path:url(#XMLID_00000113343622187818953440000013002774677423295112_);fill:#FF495F;" d="
							M390.334,206.996c3.847,0.031,6.57,3.749,8.098,7.28c2.92,6.747,3.903,14.32,2.803,21.589
							c-0.487,3.217-1.419,6.465-3.441,9.013c-2.022,2.548-5.313,4.273-8.52,3.73c-2.179-0.369-4.075-1.707-5.682-3.224
							c-7.378-6.965-9.822-18.116-7.913-28.081c0.842-4.396,2.537-8.782,5.746-11.903c3.209-3.12,8.152-4.713,12.325-3.094"/>
					</g>
					<path style="fill:#F8CAC7;" d="M404.717,223.196c0.92,5.469-3.215,25.131-20.4,21.062
						c-17.185-4.069-15.116-28.243-10.533-34.769C378.366,202.964,401.28,202.757,404.717,223.196z"/>
					<path style="fill:#F8CAC7;" d="M374.799,222.948c-0.705-1.214-1.904-2.189-3.292-2.394c-1.389-0.205-2.926,0.483-3.508,1.76
						c-0.211,0.464-0.294,0.978-0.313,1.488c-0.061,1.634,0.561,3.318,1.794,4.392c1.233,1.074,3.088,1.446,4.579,0.776"/>
					<path style="fill:#AD57C0;" d="M418.676,226.204c-9.515,0.694-18.678-3.406-27.14-7.812c-3.922-2.042-7.925-4.277-10.571-7.82
						c-2.688,2.569-4.44,6.097-4.861,9.791c-1.495-1.476-2.171-3.733-1.733-5.787c-1.762,1.304-2.124,5.694-2.335,7.876
						c-7.831-3.023-2.741-13.322,0.874-17.367c3.615-4.045,9.318-5.82,14.735-5.516c5.417,0.304,10.579,2.481,15.218,5.295
						c4.09,2.481,7.912,5.527,10.705,9.41c3.54,4.92,5.26,10.967,5.803,17.004"/>
					<path style="fill:#AD57C0;" d="M378.197,203.186c2.461,11.124,10.146,20.975,20.337,26.069
						c-7.227-6.181-11.559-15.615-11.538-25.125"/>
					<path style="fill:#F8CAC7;" d="M401.455,222.436c-0.038-1.895,1.341-3.728,3.172-4.218c1.831-0.49,3.94,0.41,4.854,2.071
						c0.635,1.153,0.704,2.549,0.467,3.844c-0.336,1.837-1.416,3.685-3.183,4.287c-1.319,0.449-2.802,0.125-4.02-0.551
						c-1.218-0.676-2.221-1.674-3.206-2.658"/>
				</g>
			</g>
		</g>
		<g>
			<path style="fill:#453854;" d="M81.25,384.432l-2.519,7.789c0,0-14.55,5.916-15.045,6.658
				c-0.495,0.742,25.727-1.484,25.727-1.484l1.484-10.143"/>
			<path style="fill:#453854;" d="M145.928,387.063l2.519,7.789c0,0,14.55,5.916,15.045,6.658
				c0.495,0.742-25.727-1.484-25.727-1.484l-1.484-10.142"/>
			<path style="fill:#FFC871;" d="M95.207,231.997c-2.861,1.127-39.19,51.323-41.023,55.86c1.817,2.694,10.67,6.071,10.67,6.071
				l36.732-41.857l-3.846,38.985c13.497,2.207,52.207-1.318,52.759-2.654s1.736-41.889,1.736-41.889l17.844,17.438l-13.873,17.426
				l2.226,10.863c1.447-0.948,26.155-23.172,26.339-27.445c0.184-4.274-25.566-37.773-29.41-40.348
				C151.517,221.869,118.82,222.695,95.207,231.997z"/>
			<g>
				<path style="fill:#B26B71;" d="M105.873,196.189c-1.121,2.728-1.229,25.68,6.967,27.166c8.196,1.486,31.459,3.336,31.712-5.376
					c0.253-8.711-1.893-27.186-5.328-30.038C135.789,185.089,109.561,187.209,105.873,196.189z"/>
				<path style="fill:#603066;" d="M108.524,196.189c0,0,0.355,19.477,3.55,23.027c3.195,3.55,17.393,2.307,17.393,2.307
					l-1.775-3.372l7.277-0.532v3.372c0,0,7.277-1.42,7.987-3.55c0.71-2.13-3.195-25.734-3.195-25.734l2.485-0.71
					c0,0,4.831,24.847,4.279,29.994c-0.552,5.147-9.958,10.935-12.62,11.413s-22.362-6.474-24.492-7.79
					c-2.13-1.316-7.277-17.375-5.147-28.424C105.685,192.772,108.524,196.189,108.524,196.189z"/>
				<path style="fill:#603066;" d="M106.394,183.168c0.539,0.921,1.078,1.842,1.618,2.763c0.962-2.953,2.854-5.595,5.339-7.458
					c-0.119,1.244-0.001,2.509,0.345,3.71c4.266-3.295,8.645-6.5,13.482-8.879c4.837-2.379,10.188-3.912,15.574-3.676
					c-2.035,1.236-3.78,2.944-5.06,4.951c5.173-1.354,11.102,1.092,13.816,5.7c-2.619,0.101-5.192,1.149-7.136,2.907
					c1.524,1.215,1.829,3.418,1.65,5.359c-0.301,3.264-1.664,6.421-3.833,8.879c0.132-2.488-2.357-4.425-4.816-4.83
					c-2.458-0.405-4.953,0.238-7.44,0.399c-2.486,0.161-5.294-0.33-6.762-2.343c-1.143,2.102-2.286,4.203-3.429,6.305
					c-0.327-1.869-0.654-3.738-0.981-5.608c0.24,1.372-6.301,5.926-7.381,6.729c-1.667,1.239-5.189,4.573-7.296,2.598
					c-1.811-1.698-1.437-6.475-1.161-8.681C103.32,188.824,104.491,185.741,106.394,183.168z"/>
				<path style="fill:#B26B71;" d="M106.217,203.191c0,0-3.195-2.697-4.792,0.541s1.775,10.926,5.679,8.058
					c0.355-3.933-0.887-7.837-0.887-7.837"/>
			</g>
			<path style="fill:#5D4681;" d="M97.74,291.054l-19.009,95.399l12.967,3.079l25.532-84.404h10.474l7.387,87.093l13.443,0
				l1.963-103.82C150.498,288.4,113.213,290.225,97.74,291.054z"/>
			<path style="fill:#B26B71;" d="M156.449,282.566c0,0-9.201-3.016-9.436-2.898c-0.235,0.117-7.406,1.024-7.261,1.618l0.414,1.934
				c0.353,0.117,6.494-0.024,6.494-0.024s-6.47,1.901-6.91,2.607l0.831,1.491c1.086,0.235,6.432-0.571,6.432-0.571
				s-5.243,3.385-5.243,4.326c0,0.941,0.826,1.352,0.944,1.47c0.118,0.118,5.463-2.049,5.463-2.049s6.714,6.248,10.007,0.721
				C158.184,289.428,156.449,282.566,156.449,282.566z"/>
			<g>
				<g>
					<defs>
						
							<rect id="XMLID_5_" x="-1.984" y="315.641" transform="matrix(-0.0642 -0.9979 0.9979 -0.0642 -254.2352 413.7131)" width="137.7" height="20.845"/>
					</defs>
					<use xlink:href="#XMLID_5_"  style="overflow:visible;fill:#FF9775;"/>
					<clipPath id="XMLID_00000133527089554194165580000010540443744855779756_">
						<use xlink:href="#XMLID_5_"  style="overflow:visible;"/>
					</clipPath>
					<path style="opacity:0.2;clip-path:url(#XMLID_00000133527089554194165580000010540443744855779756_);fill:#FF495F;" d="
						M57.97,401.468c1.193-24.12-2.244-48.192-4.885-72.197c-2.465-22.408-4.24-44.891-5.323-67.408
						c-0.148-3.072-0.281-6.175,0.272-9.201c0.209-1.145,0.615-2.402,1.65-2.935c2.081-1.072,4.081,1.603,4.769,3.84
						c1.783,5.803,2.341,11.9,2.888,17.946c2.611,28.829,5.222,57.657,7.833,86.486c1.643,18.141,3.257,36.693-1.189,54.357"/>
					
						<rect x="67.899" y="381.175" transform="matrix(-0.0642 -0.9979 0.9979 -0.0642 -315.1507 487.6559)" style="clip-path:url(#XMLID_00000133527089554194165580000010540443744855779756_);fill:#FFFFFF;" width="6.361" height="20.845"/>
					
						<rect x="68.214" y="370.551" transform="matrix(-0.0642 -0.9979 0.9979 -0.0642 -307.4464 478.6999)" style="clip-path:url(#XMLID_00000133527089554194165580000010540443744855779756_);fill:#FFFFFF;" width="5.032" height="25.909"/>
				</g>
				<g>
					<defs>
						<path id="XMLID_4_" d="M81.543,391.909l0.259,4.025c0.369,5.744-3.988,10.7-9.732,11.07l0,0
							c-5.744,0.369-10.7-3.988-11.069-9.732l-0.259-4.025L81.543,391.909z"/>
					</defs>
					<use xlink:href="#XMLID_4_"  style="overflow:visible;fill:#F86A82;"/>
					<clipPath id="XMLID_00000041976989420428018290000007885527952817401772_">
						<use xlink:href="#XMLID_4_"  style="overflow:visible;"/>
					</clipPath>
					<path style="opacity:0.2;clip-path:url(#XMLID_00000041976989420428018290000007885527952817401772_);fill:#FF495F;" d="
						M52.691,385.887c1.558,5.977,6.254,11.039,12.097,13.042c5.143,1.763,10.821,1.234,16.048,2.732
						c0.555,0.159,1.125,0.353,1.536,0.758c0.518,0.51,0.7,1.273,0.738,2c0.221,4.153-3.621,7.668-7.712,8.418
						c-4.09,0.749-8.263-0.613-12.076-2.275c-4.18-1.822-8.363-4.18-10.845-8.005c-2.481-3.825-2.69-9.45,0.618-12.588"/>
				</g>
				<g>
					<defs>
						<polygon id="XMLID_3_" points="52.048,258.024 61.071,235.935 72.849,256.687 						"/>
					</defs>
					<use xlink:href="#XMLID_3_"  style="overflow:visible;fill:#FFD7B8;"/>
					<clipPath id="XMLID_00000178913701577107395730000009152624773624377245_">
						<use xlink:href="#XMLID_3_"  style="overflow:visible;"/>
					</clipPath>
					<path style="clip-path:url(#XMLID_00000178913701577107395730000009152624773624377245_);fill:#5D386E;" d="M65.598,243.785
						c1.063-0.429,2.093-1.022,2.813-1.914c0.706-0.876,1.068-1.987,1.219-3.101c0.476-3.508-1.148-7.182-3.962-9.332
						c-4.837-3.696-12.701-2.65-16.238,2.424c-3.354,4.811,2.689,10.323,6.917,11.908C59.295,244.875,62.656,244.97,65.598,243.785z
						"/>
				</g>
			</g>
			<path style="fill:#B26B71;" d="M52.048,285.106c0,0-0.661,9.342,1.402,10.862c2.064,1.521,7.278,0.109,7.603-0.543
				c0.326-0.652,0.097-1.498,0.097-1.498l-3.279-1.473c0,0,3.444-0.948,3.834-1.142c0.397-0.198,0.502-1.58,0.107-1.742
				c-0.635-0.261-4.388-0.569-4.388-0.569s4.574-1.281,4.606-2.048c0.023-0.552-0.422-1.811-0.95-1.933
				c-0.475-0.11-4.698,0.63-4.698,0.63s3.584-3.585,3.367-3.91c-0.217-0.326-1.594-1.412-1.992-1.195
				C57.36,280.761,53.252,283.042,52.048,285.106z"/>
		</g>
	</g>
</g>
<g id="DESIGNED_BY_FREEPIK">
	<g>
		<g id="XMLID_25_">
			<g id="XMLID_44_">
				<path id="XMLID_52_" style="fill:#ACB7C6;" d="M260.104,465.465c-0.432,0.443-0.803,0.931-1.109,1.453l-0.465-0.241
					c-0.067-0.298-0.349-0.503-0.659-0.466c-0.331,0.039-0.568,0.339-0.529,0.67c0.039,0.331,0.339,0.568,0.67,0.529
					c0.065-0.008,0.127-0.026,0.183-0.052l0.451,0.234c-0.251,0.554-0.433,1.139-0.539,1.744l0.746,0.132
					c0.23-1.306,0.85-2.507,1.792-3.473L260.104,465.465z"/>
				<path id="XMLID_51_" style="fill:#ACB7C6;" d="M265.592,463.163c-0.171,0-0.341,0.006-0.51,0.017l-0.074-0.626
					c0.188-0.149,0.296-0.389,0.266-0.645c-0.046-0.393-0.402-0.674-0.795-0.628c-0.393,0.046-0.674,0.402-0.628,0.795
					c0.03,0.254,0.19,0.461,0.405,0.564l0.074,0.624c-0.714,0.116-1.403,0.332-2.06,0.646l0.327,0.684
					c0.934-0.447,1.942-0.673,2.995-0.673c0.496,0,0.993,0.053,1.475,0.158l0.16-0.741
					C266.692,463.222,266.142,463.163,265.592,463.163z"/>
				<path id="XMLID_50_" style="fill:#ACB7C6;" d="M272.194,465.711c0.331-0.04,0.566-0.341,0.525-0.672
					c-0.04-0.331-0.341-0.566-0.672-0.526c-0.309,0.038-0.535,0.304-0.53,0.609l-0.416,0.363c-0.418-0.43-0.89-0.813-1.408-1.139
					l-0.404,0.641c1.134,0.715,2.02,1.726,2.563,2.925l0.69-0.313c-0.251-0.554-0.568-1.072-0.942-1.545l0.402-0.351
					C272.065,465.716,272.129,465.719,272.194,465.711z"/>
				<path id="XMLID_49_" style="fill:#ACB7C6;" d="M265.044,473.372c-0.386,0.023-0.775,0.035-1.157,0.035
					c-0.88,0-1.733-0.061-2.478-0.179c-0.39-0.062-0.846-0.155-1.27-0.292c1.046,1.861,3.069,3.125,5.388,3.125
					c2.855,0,5.262-1.916,5.95-4.504c-0.682,0.449-1.505,0.825-2.459,1.123C267.839,473.047,266.464,473.286,265.044,473.372z"/>
				<path id="XMLID_45_" style="fill:#ACB7C6;" d="M265.592,464.68c-3.352,0-6.08,2.666-6.08,5.943c0,0.426,0.046,0.849,0.137,1.261
					c0.674,0.483,2.706,0.89,5.348,0.731c2.88-0.173,5.297-0.957,6.672-2.159c-0.005-0.195-0.021-0.39-0.045-0.582
					C271.244,466.913,268.651,464.68,265.592,464.68z M263.432,471.194c-1.02,0-1.85-0.83-1.85-1.85c0-1.02,0.83-1.85,1.85-1.85
					s1.85,0.83,1.85,1.85C265.282,470.365,264.452,471.194,263.432,471.194z M268.17,470.286c-0.75,0-1.36-0.61-1.36-1.36
					s0.61-1.361,1.36-1.361c0.75,0,1.361,0.61,1.361,1.361S268.92,470.286,268.17,470.286z"/>
			</g>
			<path id="XMLID_42_" style="fill:#ACB7C6;" d="M281.595,466.547c-0.295-0.116-0.805-0.309-1.382-0.237
				c-0.551,0.069-0.844,0.341-0.844,1.007v0.866h2.228v1.717h-2.228v5.455h-1.932v-5.455h-1.339v-1.717h1.339v-0.888
				c0-1.68,0.896-2.783,2.568-2.783c0.642,0,1.157,0.122,1.59,0.308L281.595,466.547z"/>
			<path id="XMLID_40_" style="fill:#ACB7C6;" d="M286.298,469.879c-0.177-0.03-0.358-0.046-0.526-0.046
				c-0.896,0-1.51,0.548-1.51,1.614v3.908h-1.932v-7.172h1.873v0.785c0.451-0.673,1.14-0.977,2.021-0.977
				c0.414,0,0.848,0.128,1.094,0.337L286.298,469.879z"/>
			<path id="XMLID_37_" style="fill:#ACB7C6;" d="M293.965,471.757c0,0.222-0.015,0.489-0.037,0.651h-5.085
				c0.207,1.036,0.933,1.488,1.843,1.488c0.622,0,1.295-0.252,1.813-0.688l1.132,1.243c-0.814,0.748-1.85,1.088-3.057,1.088
				c-2.198,0-3.723-1.495-3.723-3.753c0-2.258,1.48-3.797,3.627-3.797C292.544,467.99,293.958,469.522,293.965,471.757z
				 M288.851,471.091h3.175c-0.177-0.918-0.733-1.436-1.561-1.436C289.554,469.655,289.021,470.203,288.851,471.091z"/>
			<path id="XMLID_34_" style="fill:#ACB7C6;" d="M301.618,471.757c0,0.222-0.015,0.489-0.037,0.651h-5.085
				c0.207,1.036,0.933,1.488,1.843,1.488c0.622,0,1.295-0.252,1.813-0.688l1.132,1.243c-0.814,0.748-1.85,1.088-3.057,1.088
				c-2.198,0-3.723-1.495-3.723-3.753c0-2.258,1.48-3.797,3.626-3.797C300.197,467.99,301.611,469.522,301.618,471.757z
				 M296.504,471.091h3.175c-0.178-0.918-0.733-1.436-1.562-1.436C297.207,469.655,296.674,470.203,296.504,471.091z"/>
			<path id="XMLID_31_" style="fill:#ACB7C6;" d="M309.964,471.764c0,2.154-1.495,3.775-3.471,3.775
				c-0.962,0-1.643-0.378-2.109-0.933v3.708h-1.924v-10.133h1.887v0.792c0.466-0.585,1.155-0.984,2.139-0.984
				C308.469,467.99,309.964,469.61,309.964,471.764z M304.287,471.764c0,1.132,0.747,1.976,1.843,1.976
				c1.14,0,1.85-0.881,1.85-1.976c0-1.095-0.71-1.976-1.85-1.976C305.035,469.788,304.287,470.632,304.287,471.764z"/>
			<path id="XMLID_28_" style="fill:#ACB7C6;" d="M313.068,465.836c0,0.696-0.54,1.229-1.236,1.229
				c-0.696,0-1.229-0.533-1.229-1.229c0-0.696,0.533-1.243,1.229-1.243C312.527,464.592,313.068,465.14,313.068,465.836z
				 M312.809,475.354h-1.932v-7.172h1.932V475.354z"/>
			<path id="XMLID_26_" style="fill:#ACB7C6;" d="M316.032,470.736l2.701-2.554h2.368l-3.479,3.375l3.501,3.797h-2.376l-2.716-2.901
				v2.901h-1.932v-10.658h1.932V470.736z"/>
		</g>
		<g>
			<path style="fill:#ACB7C6;" d="M184.412,475.289v-1.055c-0.527,0.718-1.391,1.23-2.387,1.23c-1.846,0-3.149-1.406-3.149-3.706
				c0-2.256,1.289-3.721,3.149-3.721c0.952,0,1.816,0.469,2.387,1.245v-3.765h1.099v9.77H184.412z M184.412,473.37v-3.208
				c-0.395-0.615-1.245-1.143-2.124-1.143c-1.421,0-2.27,1.172-2.27,2.739c0,1.567,0.85,2.724,2.27,2.724
				C183.167,474.483,184.017,473.986,184.412,473.37z"/>
			<path style="fill:#ACB7C6;" d="M186.932,471.744c0-2.051,1.465-3.706,3.486-3.706c2.139,0,3.398,1.67,3.398,3.794v0.279h-5.727
				c0.088,1.333,1.025,2.446,2.549,2.446c0.805,0,1.626-0.322,2.182-0.894l0.527,0.718c-0.703,0.703-1.655,1.084-2.813,1.084
				C188.44,475.465,186.932,473.956,186.932,471.744z M190.403,468.947c-1.509,0-2.256,1.274-2.314,2.358h4.643
				C192.718,470.25,192.014,468.947,190.403,468.947z"/>
			<path style="fill:#ACB7C6;" d="M194.607,474.351l0.571-0.791c0.469,0.542,1.362,1.011,2.329,1.011c1.084,0,1.67-0.513,1.67-1.216
				c0-1.714-4.38-0.659-4.38-3.281c0-1.098,0.952-2.036,2.636-2.036c1.201,0,2.051,0.454,2.622,1.026l-0.513,0.762
				c-0.424-0.513-1.201-0.894-2.109-0.894c-0.967,0-1.567,0.483-1.567,1.113c0,1.552,4.38,0.527,4.38,3.281
				c0,1.187-0.952,2.138-2.783,2.138C196.306,475.465,195.325,475.113,194.607,474.351z"/>
			<path style="fill:#ACB7C6;" d="M201.477,466.471c0-0.41,0.337-0.747,0.732-0.747c0.41,0,0.747,0.337,0.747,0.747
				c0,0.41-0.337,0.732-0.747,0.732C201.814,467.203,201.477,466.881,201.477,466.471z M201.667,475.289v-7.075h1.099v7.075H201.667
				z"/>
			<path style="fill:#ACB7C6;" d="M204.582,477.105l0.556-0.82c0.586,0.703,1.289,0.967,2.3,0.967c1.172,0,2.27-0.571,2.27-2.124
				v-1.011c-0.513,0.718-1.377,1.26-2.373,1.26c-1.845,0-3.149-1.377-3.149-3.662c0-2.27,1.289-3.677,3.149-3.677
				c0.952,0,1.802,0.469,2.373,1.245v-1.069h1.098v6.87c0,2.344-1.64,3.076-3.369,3.076
				C206.237,478.16,205.417,477.926,204.582,477.105z M209.709,473.253v-3.091c-0.381-0.615-1.23-1.143-2.109-1.143
				c-1.421,0-2.27,1.128-2.27,2.695c0,1.553,0.849,2.695,2.27,2.695C208.478,474.41,209.328,473.868,209.709,473.253z"/>
			<path style="fill:#ACB7C6;" d="M217.413,475.289v-4.629c0-1.245-0.63-1.641-1.582-1.641c-0.865,0-1.685,0.527-2.095,1.099v5.17
				h-1.099v-7.075h1.099v1.025c0.498-0.586,1.465-1.201,2.519-1.201c1.48,0,2.256,0.747,2.256,2.285v4.966H217.413z"/>
			<path style="fill:#ACB7C6;" d="M219.932,471.744c0-2.051,1.465-3.706,3.486-3.706c2.139,0,3.398,1.67,3.398,3.794v0.279h-5.727
				c0.088,1.333,1.025,2.446,2.549,2.446c0.806,0,1.626-0.322,2.183-0.894l0.527,0.718c-0.703,0.703-1.655,1.084-2.812,1.084
				C221.441,475.465,219.932,473.956,219.932,471.744z M223.404,468.947c-1.509,0-2.256,1.274-2.314,2.358h4.643
				C225.718,470.25,225.015,468.947,223.404,468.947z"/>
			<path style="fill:#ACB7C6;" d="M233.35,475.289v-1.055c-0.527,0.718-1.391,1.23-2.388,1.23c-1.846,0-3.149-1.406-3.149-3.706
				c0-2.256,1.289-3.721,3.149-3.721c0.952,0,1.817,0.469,2.388,1.245v-3.765h1.098v9.77H233.35z M233.35,473.37v-3.208
				c-0.396-0.615-1.245-1.143-2.124-1.143c-1.421,0-2.27,1.172-2.27,2.739c0,1.567,0.85,2.724,2.27,2.724
				C232.105,474.483,232.954,473.986,233.35,473.37z"/>
			<path style="fill:#ACB7C6;" d="M239.692,475.289v-9.77h1.099v3.765c0.572-0.776,1.421-1.245,2.388-1.245
				c1.845,0,3.149,1.465,3.149,3.721c0,2.299-1.304,3.706-3.149,3.706c-0.996,0-1.86-0.513-2.388-1.23v1.055H239.692z
				 M242.9,474.483c1.436,0,2.285-1.157,2.285-2.724c0-1.568-0.85-2.739-2.285-2.739c-0.864,0-1.728,0.527-2.109,1.143v3.208
				C241.171,473.986,242.036,474.483,242.9,474.483z"/>
			<path style="fill:#ACB7C6;" d="M247.528,477.061c0.161,0.073,0.425,0.117,0.601,0.117c0.483,0,0.806-0.161,1.055-0.747
				l0.469-1.069l-2.959-7.148h1.187l2.358,5.8l2.344-5.8h1.201l-3.545,8.51c-0.425,1.025-1.143,1.421-2.08,1.435
				c-0.234,0-0.601-0.044-0.805-0.103L247.528,477.061z"/>
		</g>
	</g>
</g>
</svg>
